<svg xmlns="http://www.w3.org/2000/svg" xmlns:xlink="http://www.w3.org/1999/xlink" viewBox="0 0 71 82.41"><defs><style>.cls-1,.cls-2{stroke:#c3ad6c;stroke-miterlimit:10;}.cls-1{fill:url(#linear-gradient);}.cls-2{fill:url(#linear-gradient-2);}</style><linearGradient id="linear-gradient" x1="35.5" y1="0.61" x2="35.5" y2="81.8" gradientUnits="userSpaceOnUse"><stop offset="0" stop-color="#c3ad6c"/><stop offset="0.21" stop-color="#cbb677"/><stop offset="0.57" stop-color="#e0cd94"/><stop offset="1" stop-color="#ffefbf"/></linearGradient><linearGradient id="linear-gradient-2" x1="35.5" y1="0.5" x2="35.5" y2="81.91" xlink:href="#linear-gradient"/></defs><title>borboletasvg</title><g id="Layer_2" data-name="Layer 2"><g id="Layer_1-2" data-name="Layer 1"><path class="cls-1" d="M31.65,81.8a.56.56,0,0,1-.39-.21,3.53,3.53,0,0,1-.7-2.38A27.69,27.69,0,0,1,34.3,69.9a35.49,35.49,0,0,1-9.68,1.38c-10.92,0-19.88-5.43-24-14.53a.27.27,0,0,1,0-.29c.08-.11.27-.17.55-.17a6.08,6.08,0,0,1,2.46.63,10.82,10.82,0,0,0,7.61,2.53,46.06,46.06,0,0,0,7.16-.8,44.79,44.79,0,0,1,7.08-.79c.48,0,.95,0,1.41.06l.25,0C18.35,53.35,13,47.62,11.4,40.89c-1.41-5.8,2.76-9.74,6.8-13.53l.26-.25c2.84-2.68,3.93-5.62,3.15-8.52-1-3.64-5-6.95-10.36-8.63,0,0-1.08-.41-1.06-.78,0-.14.13-.23.37-.28a27.54,27.54,0,0,1,5.56-.54,38.74,38.74,0,0,1,22.71,7.81,44.51,44.51,0,0,1,4.33,4,13.65,13.65,0,0,1,1.7-.44c4.12-.92,6.88-2.93,8-5.8,1.34-3.5,0-8.11-3.39-12C49.4,1.78,48.88,1,49,.74a.27.27,0,0,1,.27-.13.78.78,0,0,1,.24,0c8.66,2.7,16.57,10.72,19.24,19.51,4.14,13.67.13,27.11-10.75,36,1.53-.24,3-.41,4.37-.52h0c.67,0,1,.85,1,1.7s-.23,1.83-.92,1.88C45.66,60.51,34.91,68.2,32.25,80.93c-.12.59-.32.88-.6.88ZM5.25,59.65a30.72,30.72,0,0,0,3.17,4.06,19.3,19.3,0,0,0,14.82,6.35,32.86,32.86,0,0,0,13.08-3,31.56,31.56,0,0,1,7-5.8l.81-.46.19,0-.08-.08c7.17-10.37,7.87-23,1.89-33.67a30.27,30.27,0,0,0-3-4.32c-.58-.71-1.18-1.4-1.8-2C34.82,13.86,25.66,9.8,16.86,9.8h-1.1c-.84,0-1.45,0-1.85,0h0a23.42,23.42,0,0,1,3.39,1.31c4.39,2.08,6.89,4.71,7.44,7.79.63,3.53-1.36,7.53-5.73,11.57-3.69,3.41-5.17,7.15-4.4,11.1,1.52,7.75,11.22,14.52,19.06,18q.91.34,1.79.74l.8.3c.56.21.84.4.9.59l0,.08-.11.17a1.43,1.43,0,0,1-.7.11,8,8,0,0,1-1.29-.12,2.77,2.77,0,0,1-.72-.19c-.31-.16-.63-.31-.94-.44L33,60.61a18,18,0,0,0-6.66-1.13,58.6,58.6,0,0,0-7.29.63,57.66,57.66,0,0,1-7.28.63A18,18,0,0,1,5.25,59.65ZM45.12,22.29c9.14,10.86,10.74,24.27,4.28,36,10.48-5.7,17.31-15,18.77-25.56A28.58,28.58,0,0,0,54,4.25C53,3.66,52.24,3.23,51.81,3h0a19.09,19.09,0,0,1,2,2.72c2.3,3.69,2.83,7,1.55,9.76C54,18.48,50.44,20.85,45.12,22.29Z"/><path class="cls-2" d="M49.31.71l.2,0c9.23,2.87,16.72,11.39,19.16,19.43,4.13,13.65.07,27.27-11,36.18,1.55-.26,3.13-.46,4.77-.58h0c1.07,0,1.23,3.28.06,3.37C47.25,60.29,35,67.09,32.13,80.91c-.12.57-.29.79-.48.79-.52,0-1.13-1.7-1-2.46a27.5,27.5,0,0,1,3.89-9.52,35.39,35.39,0,0,1-9.94,1.46C14.44,71.18,5.13,66.43.76,56.71c-.1-.23.11-.31.46-.31A6.11,6.11,0,0,1,3.6,57a11.05,11.05,0,0,0,7.7,2.56C15.91,59.56,21,58,25.54,58c.47,0,.94,0,1.4.05.3,0,.6.09.9.13C20.1,54.25,13.43,48.7,11.52,40.87c-1.43-5.87,2.88-9.78,7-13.68,7.39-7,1.83-14.49-7.26-17.33-.22-.07-1.54-.68-.69-.85a27.53,27.53,0,0,1,5.53-.54,38.36,38.36,0,0,1,22.64,7.78,44.43,44.43,0,0,1,4.31,3.95l1.82-.4c10.54-2.35,10.55-11.3,4.67-18-.13-.14-.73-1.08-.26-1.08m-.19,57.84C59.61,53,66.8,43.55,68.29,32.73c1.46-10.61-3.69-22.8-14.2-28.57-1.89-1-2.67-1.58-2.75-1.58a31.07,31.07,0,0,1,2.39,3.14c5.37,8.61.39,14.07-8.8,16.5C54,32.88,56,46.4,49.12,58.55M36.35,61.39a8.09,8.09,0,0,1-1.27-.11,2.62,2.62,0,0,1-.68-.18c-.32-.16-.63-.31-.95-.44l-.38-.15a18.15,18.15,0,0,0-6.71-1.14c-4.8,0-9.8,1.26-14.57,1.26A17.61,17.61,0,0,1,5,59.42a30.19,30.19,0,0,0,3.36,4.36,19.51,19.51,0,0,0,14.91,6.39,33.16,33.16,0,0,0,13.13-3,1.72,1.72,0,0,1,.17,0,28.12,28.12,0,0,1,6.85-5.77l.88-.51.08-.1C51.44,50.47,52.29,37.8,46.24,27a30.06,30.06,0,0,0-3-4.33c-.57-.7-1.17-1.38-1.81-2-6.14-6.37-15.2-10.89-24.6-10.89h-1.1c-1.26,0-2,0-2.31,0-.76,0,1,.19,3.78,1.53,10.46,5,8.94,12.49,1.67,19.19C6.62,41.72,21.26,54.2,33.6,59.6c.61.23,1.2.48,1.79.74l.8.31c.57.21.79.38.83.52a0,0,0,0,0,0,0,.08.08,0,0,1,0,.12h0a1.43,1.43,0,0,1-.63.09M49.31.5h0a.41.41,0,0,0-.37.19c-.21.39.44,1.23.44,1.23,3.41,3.89,4.7,8.46,3.36,11.92-1.09,2.84-3.83,4.83-7.91,5.74L43.16,20a44.22,44.22,0,0,0-4.24-3.88,38.86,38.86,0,0,0-22.8-7.83,27.84,27.84,0,0,0-5.58.54c-.37.08-.46.25-.46.37,0,.47,1.12.88,1.13.89,5.36,1.67,9.31,5,10.29,8.55.77,2.86-.3,5.77-3.12,8.42l-.26.25c-4.06,3.82-8.26,7.77-6.83,13.63,1.62,6.64,6.79,12.31,15.38,16.88-.36,0-.74,0-1.12,0a45,45,0,0,0-7.1.79,45.86,45.86,0,0,1-7.14.79,10.7,10.7,0,0,1-7.53-2.5,6.22,6.22,0,0,0-2.55-.66.79.79,0,0,0-.65.22.36.36,0,0,0,0,.39c4.11,9.14,13.11,14.6,24.08,14.6A35.56,35.56,0,0,0,34,70.09a27.87,27.87,0,0,0-3.61,9.11,3.63,3.63,0,0,0,.72,2.47.69.69,0,0,0,.49.25c.46,0,.63-.55.72-1C35,68.28,45.73,60.61,62.54,59.37c.77-.06,1.08-1,1-2s-.4-1.81-1.11-1.81H62.4c-1.28.09-2.59.24-4,.45,10.68-9,14.6-22.31,10.48-35.9C66.22,11.31,58.28,3.26,49.59.55A.89.89,0,0,0,49.31.5Zm-4,21.85c5.27-1.45,8.79-3.83,10.17-6.87,1.28-2.82.76-6.13-1.56-9.85a19.7,19.7,0,0,0-1.6-2.22L54,4.34A28.47,28.47,0,0,1,68.06,32.7C66.62,43.11,59.94,52.29,49.69,58c6.24-11.63,4.62-24.88-4.38-35.64ZM37.24,61.11c-.07-.23-.36-.43-1-.66l-.45-.17-.35-.13c-.57-.26-1.18-.51-1.79-.74C25.88,56,16.21,49.25,14.7,41.54c-.77-3.92.7-7.62,4.37-11,4.4-4.07,6.4-8.1,5.76-11.67-.55-3.12-3.08-5.77-7.5-7.88a23.14,23.14,0,0,0-2.71-1.09h2.23c8.77,0,17.89,4,24.41,10.82.61.64,1.22,1.32,1.79,2a29.72,29.72,0,0,1,3,4.3c6,10.68,5.26,23.23-1.89,33.57l0,.06h0l-.82.47a28.55,28.55,0,0,0-6.85,5.75.48.48,0,0,0-.16,0,32.6,32.6,0,0,1-13,3A19.18,19.18,0,0,1,8.51,63.65a31,31,0,0,1-3-3.78,18.48,18.48,0,0,0,6.25,1,57.75,57.75,0,0,0,7.3-.63,57.72,57.72,0,0,1,7.27-.63A17.8,17.8,0,0,1,33,60.71l.18.07.19.08c.3.12.61.27.93.43a2.92,2.92,0,0,0,.76.2,8.45,8.45,0,0,0,1.31.12,1.55,1.55,0,0,0,.76-.12l.07,0v0a.26.26,0,0,0,.08-.21h0a.25.25,0,0,0,0-.1Z"/></g></g></svg>